<svg xmlns="http://www.w3.org/2000/svg" viewBox="0 0 640 334" width="640" height="334" font-family="'Segoe UI', Roboto, 'Helvetica Neue', Arial, sans-serif" role="img" aria-label="Chloratomet tegnet efter skalmodellen med 2, 8 og 7 elektroner">
<title>Chloratomet tegnet efter skalmodellen med 2, 8 og 7 elektroner</title>
<circle cx="180.0" cy="165.0" r="46.0" fill="none" stroke="#c3d6d4" stroke-width="1.3"/><circle cx="180.0" cy="165.0" r="84.0" fill="none" stroke="#c3d6d4" stroke-width="1.3"/><circle cx="180.0" cy="165.0" r="122.0" fill="none" stroke="#0f766e" stroke-width="1.7"/><circle cx="180.0" cy="165.0" r="22.0" fill="#e5533d" stroke="#a93226" stroke-width="1.2"/><text x="180.0" y="170.4" font-size="15" text-anchor="middle" fill="#ffffff" font-weight="700"><tspan>17+</tspan></text><circle cx="180.0" cy="119.0" r="6.5" fill="#a9c4f5" stroke="#6f93d6" stroke-width="1"/><circle cx="180.0" cy="211.0" r="6.5" fill="#a9c4f5" stroke="#6f93d6" stroke-width="1"/><circle cx="180.0" cy="81.0" r="6.5" fill="#a9c4f5" stroke="#6f93d6" stroke-width="1"/><circle cx="239.4" cy="105.6" r="6.5" fill="#a9c4f5" stroke="#6f93d6" stroke-width="1"/><circle cx="264.0" cy="165.0" r="6.5" fill="#a9c4f5" stroke="#6f93d6" stroke-width="1"/><circle cx="239.4" cy="224.4" r="6.5" fill="#a9c4f5" stroke="#6f93d6" stroke-width="1"/><circle cx="180.0" cy="249.0" r="6.5" fill="#a9c4f5" stroke="#6f93d6" stroke-width="1"/><circle cx="120.6" cy="224.4" r="6.5" fill="#a9c4f5" stroke="#6f93d6" stroke-width="1"/><circle cx="96.0" cy="165.0" r="6.5" fill="#a9c4f5" stroke="#6f93d6" stroke-width="1"/><circle cx="120.6" cy="105.6" r="6.5" fill="#a9c4f5" stroke="#6f93d6" stroke-width="1"/><circle cx="180.0" cy="43.0" r="6.5" fill="#2f6fde" stroke="#1b4aa3" stroke-width="1"/><circle cx="275.4" cy="88.9" r="6.5" fill="#2f6fde" stroke="#1b4aa3" stroke-width="1"/><circle cx="298.9" cy="192.1" r="6.5" fill="#2f6fde" stroke="#1b4aa3" stroke-width="1"/><circle cx="232.9" cy="274.9" r="6.5" fill="#2f6fde" stroke="#1b4aa3" stroke-width="1"/><circle cx="127.1" cy="274.9" r="6.5" fill="#2f6fde" stroke="#1b4aa3" stroke-width="1"/><circle cx="61.1" cy="192.1" r="6.5" fill="#2f6fde" stroke="#1b4aa3" stroke-width="1"/><circle cx="84.6" cy="88.9" r="6.5" fill="#2f6fde" stroke="#1b4aa3" stroke-width="1"/><line x1="249.9" y1="65.0" x2="372.0" y2="60.0" stroke="#556766" stroke-width="1.1" stroke-linecap="round"/><circle cx="249.9" cy="65.0" r="2.4" fill="#556766"/><text x="380.0" y="65.0" font-size="16" text-anchor="start" fill="#14201f" font-weight="700"><tspan>3. skal: 7 elektroner</tspan></text><text x="380.0" y="85.0" font-size="14" text-anchor="start" fill="#556766"><tspan>yderste skal</tspan></text><line x1="253.9" y1="125.0" x2="372.0" y2="125.0" stroke="#556766" stroke-width="1.1" stroke-linecap="round"/><circle cx="253.9" cy="125.0" r="2.4" fill="#556766"/><text x="380.0" y="130.0" font-size="16" text-anchor="start" fill="#14201f" font-weight="700"><tspan>2. skal: 8 elektroner</tspan></text><line x1="224.4" y1="177.0" x2="372.0" y2="177.0" stroke="#556766" stroke-width="1.1" stroke-linecap="round"/><circle cx="224.4" cy="177.0" r="2.4" fill="#556766"/><text x="380.0" y="182.0" font-size="16" text-anchor="start" fill="#14201f" font-weight="700"><tspan>1. skal: 2 elektroner</tspan></text><line x1="192.0" y1="184.0" x2="372.0" y2="236.0" stroke="#556766" stroke-width="1.1" stroke-linecap="round"/><circle cx="192.0" cy="184.0" r="2.4" fill="#556766"/><text x="380.0" y="241.0" font-size="16" text-anchor="start" fill="#14201f" font-weight="700"><tspan>Kerne: 17 protoner</tspan></text><rect x="380.0" y="284.0" width="232.0" height="36.0" rx="8" fill="#e3f2f0" stroke="#0f766e" stroke-width="1.3"/><text x="496.0" y="308.0" font-size="16" text-anchor="middle" fill="#0f766e" font-weight="700"><tspan>Elektronstruktur: (2, 8, 7)</tspan></text>
</svg>
