<svg xmlns="http://www.w3.org/2000/svg" viewBox="0 0 740 372" width="740" height="372" font-family="'Segoe UI', Roboto, 'Helvetica Neue', Arial, sans-serif" role="img" aria-label="Ioner som klodser: de positive og negative ladninger skal fylde lige meget">
<title>Ioner som klodser: de positive og negative ladninger skal fylde lige meget</title>
<text x="24.0" y="72.0" font-size="26" text-anchor="start" fill="#14201f" font-weight="700"><tspan>NaCl</tspan></text><text x="24.0" y="96.0" font-size="14.5" text-anchor="start" fill="#556766"><tspan>natriumchlorid</tspan></text><rect x="215.0" y="22.0" width="44.0" height="48.0" rx="7" fill="#fbd3ca" stroke="#c0392b" stroke-width="1.5"/><line x1="232.5" y1="60.0" x2="241.5" y2="60.0" stroke="#c0392b" stroke-width="2" stroke-linecap="round"/><line x1="237.0" y1="55.5" x2="237.0" y2="64.5" stroke="#c0392b" stroke-width="2" stroke-linecap="round"/><text x="237.0" y="44.0" font-size="16" text-anchor="middle" fill="#7a1f14" font-weight="700"><tspan>Na</tspan><tspan dy="-6.08" font-size="10.9">+</tspan></text><rect x="215.0" y="73.0" width="44.0" height="48.0" rx="7" fill="#cfe0fb" stroke="#1d4ed8" stroke-width="1.5"/><line x1="232.5" y1="83.0" x2="241.5" y2="83.0" stroke="#1d4ed8" stroke-width="2" stroke-linecap="round"/><text x="237.0" y="112.0" font-size="16" text-anchor="middle" fill="#12307f" font-weight="700"><tspan>Cl</tspan><tspan dy="-6.08" font-size="10.9">−</tspan></text><text x="520.0" y="78.0" font-size="15.5" text-anchor="start" fill="#14201f"><tspan>+1 og −1 giver 0</tspan></text><line x1="20.0" y1="130.0" x2="720.0" y2="130.0" stroke="#dfe9e8" stroke-width="1.3" stroke-linecap="round"/><text x="24.0" y="190.0" font-size="26" text-anchor="start" fill="#14201f" font-weight="700"><tspan>CaCl</tspan><tspan dy="5.72" font-size="17.7">2</tspan></text><text x="24.0" y="214.0" font-size="14.5" text-anchor="start" fill="#556766"><tspan>calciumchlorid</tspan></text><rect x="215.0" y="140.0" width="90.0" height="48.0" rx="7" fill="#fbd3ca" stroke="#c0392b" stroke-width="1.5"/><line x1="232.5" y1="178.0" x2="241.5" y2="178.0" stroke="#c0392b" stroke-width="2" stroke-linecap="round"/><line x1="237.0" y1="173.5" x2="237.0" y2="182.5" stroke="#c0392b" stroke-width="2" stroke-linecap="round"/><line x1="278.5" y1="178.0" x2="287.5" y2="178.0" stroke="#c0392b" stroke-width="2" stroke-linecap="round"/><line x1="283.0" y1="173.5" x2="283.0" y2="182.5" stroke="#c0392b" stroke-width="2" stroke-linecap="round"/><text x="260.0" y="162.0" font-size="16" text-anchor="middle" fill="#7a1f14" font-weight="700"><tspan>Ca</tspan><tspan dy="-6.08" font-size="10.9">2+</tspan></text><rect x="215.0" y="191.0" width="44.0" height="48.0" rx="7" fill="#cfe0fb" stroke="#1d4ed8" stroke-width="1.5"/><line x1="232.5" y1="201.0" x2="241.5" y2="201.0" stroke="#1d4ed8" stroke-width="2" stroke-linecap="round"/><text x="237.0" y="230.0" font-size="16" text-anchor="middle" fill="#12307f" font-weight="700"><tspan>Cl</tspan><tspan dy="-6.08" font-size="10.9">−</tspan></text><rect x="261.0" y="191.0" width="44.0" height="48.0" rx="7" fill="#cfe0fb" stroke="#1d4ed8" stroke-width="1.5"/><line x1="278.5" y1="201.0" x2="287.5" y2="201.0" stroke="#1d4ed8" stroke-width="2" stroke-linecap="round"/><text x="283.0" y="230.0" font-size="16" text-anchor="middle" fill="#12307f" font-weight="700"><tspan>Cl</tspan><tspan dy="-6.08" font-size="10.9">−</tspan></text><text x="520.0" y="196.0" font-size="15.5" text-anchor="start" fill="#14201f"><tspan>+2 og 2 · (−1) giver 0</tspan></text><line x1="20.0" y1="248.0" x2="720.0" y2="248.0" stroke="#dfe9e8" stroke-width="1.3" stroke-linecap="round"/><text x="24.0" y="308.0" font-size="26" text-anchor="start" fill="#14201f" font-weight="700"><tspan>Al</tspan><tspan dy="5.72" font-size="17.7">2</tspan><tspan dy="-5.72">O</tspan><tspan dy="5.72" font-size="17.7">3</tspan></text><text x="24.0" y="332.0" font-size="14.5" text-anchor="start" fill="#556766"><tspan>aluminiumoxid</tspan></text><rect x="215.0" y="258.0" width="136.0" height="48.0" rx="7" fill="#fbd3ca" stroke="#c0392b" stroke-width="1.5"/><line x1="232.5" y1="296.0" x2="241.5" y2="296.0" stroke="#c0392b" stroke-width="2" stroke-linecap="round"/><line x1="237.0" y1="291.5" x2="237.0" y2="300.5" stroke="#c0392b" stroke-width="2" stroke-linecap="round"/><line x1="278.5" y1="296.0" x2="287.5" y2="296.0" stroke="#c0392b" stroke-width="2" stroke-linecap="round"/><line x1="283.0" y1="291.5" x2="283.0" y2="300.5" stroke="#c0392b" stroke-width="2" stroke-linecap="round"/><line x1="324.5" y1="296.0" x2="333.5" y2="296.0" stroke="#c0392b" stroke-width="2" stroke-linecap="round"/><line x1="329.0" y1="291.5" x2="329.0" y2="300.5" stroke="#c0392b" stroke-width="2" stroke-linecap="round"/><text x="283.0" y="280.0" font-size="16" text-anchor="middle" fill="#7a1f14" font-weight="700"><tspan>Al</tspan><tspan dy="-6.08" font-size="10.9">3+</tspan></text><rect x="353.0" y="258.0" width="136.0" height="48.0" rx="7" fill="#fbd3ca" stroke="#c0392b" stroke-width="1.5"/><line x1="370.5" y1="296.0" x2="379.5" y2="296.0" stroke="#c0392b" stroke-width="2" stroke-linecap="round"/><line x1="375.0" y1="291.5" x2="375.0" y2="300.5" stroke="#c0392b" stroke-width="2" stroke-linecap="round"/><line x1="416.5" y1="296.0" x2="425.5" y2="296.0" stroke="#c0392b" stroke-width="2" stroke-linecap="round"/><line x1="421.0" y1="291.5" x2="421.0" y2="300.5" stroke="#c0392b" stroke-width="2" stroke-linecap="round"/><line x1="462.5" y1="296.0" x2="471.5" y2="296.0" stroke="#c0392b" stroke-width="2" stroke-linecap="round"/><line x1="467.0" y1="291.5" x2="467.0" y2="300.5" stroke="#c0392b" stroke-width="2" stroke-linecap="round"/><text x="421.0" y="280.0" font-size="16" text-anchor="middle" fill="#7a1f14" font-weight="700"><tspan>Al</tspan><tspan dy="-6.08" font-size="10.9">3+</tspan></text><rect x="215.0" y="309.0" width="90.0" height="48.0" rx="7" fill="#cfe0fb" stroke="#1d4ed8" stroke-width="1.5"/><line x1="232.5" y1="319.0" x2="241.5" y2="319.0" stroke="#1d4ed8" stroke-width="2" stroke-linecap="round"/><line x1="278.5" y1="319.0" x2="287.5" y2="319.0" stroke="#1d4ed8" stroke-width="2" stroke-linecap="round"/><text x="260.0" y="348.0" font-size="16" text-anchor="middle" fill="#12307f" font-weight="700"><tspan>O</tspan><tspan dy="-6.08" font-size="10.9">2−</tspan></text><rect x="307.0" y="309.0" width="90.0" height="48.0" rx="7" fill="#cfe0fb" stroke="#1d4ed8" stroke-width="1.5"/><line x1="324.5" y1="319.0" x2="333.5" y2="319.0" stroke="#1d4ed8" stroke-width="2" stroke-linecap="round"/><line x1="370.5" y1="319.0" x2="379.5" y2="319.0" stroke="#1d4ed8" stroke-width="2" stroke-linecap="round"/><text x="352.0" y="348.0" font-size="16" text-anchor="middle" fill="#12307f" font-weight="700"><tspan>O</tspan><tspan dy="-6.08" font-size="10.9">2−</tspan></text><rect x="399.0" y="309.0" width="90.0" height="48.0" rx="7" fill="#cfe0fb" stroke="#1d4ed8" stroke-width="1.5"/><line x1="416.5" y1="319.0" x2="425.5" y2="319.0" stroke="#1d4ed8" stroke-width="2" stroke-linecap="round"/><line x1="462.5" y1="319.0" x2="471.5" y2="319.0" stroke="#1d4ed8" stroke-width="2" stroke-linecap="round"/><text x="444.0" y="348.0" font-size="16" text-anchor="middle" fill="#12307f" font-weight="700"><tspan>O</tspan><tspan dy="-6.08" font-size="10.9">2−</tspan></text><text x="520.0" y="314.0" font-size="15.5" text-anchor="start" fill="#14201f"><tspan>2 · (+3) og 3 · (−2) giver 0</tspan></text>
</svg>
