<svg xmlns="http://www.w3.org/2000/svg" viewBox="0 0 790 216" width="790" height="216" font-family="'Segoe UI', Roboto, 'Helvetica Neue', Arial, sans-serif" role="img" aria-label="Seks sammensatte ioner: hydroxid, nitrat, carbonat, sulfat, phosphat og ammonium">
<title>Seks sammensatte ioner: hydroxid, nitrat, carbonat, sulfat, phosphat og ammonium</title>
<rect x="18.0" y="50.0" width="76.0" height="76.0" rx="12" fill="#cfe0fb" opacity="0.55"/><circle cx="73.0" cy="88.0" r="12.0" fill="#ffffff" stroke="#8a9799" stroke-width="1.3"/><text x="73.0" y="92.0" font-size="11" text-anchor="middle" fill="#14201f" font-weight="700"><tspan>H</tspan></text><circle cx="48.0" cy="88.0" r="18.0" fill="#e5533d" stroke="#a93226" stroke-width="1.3"/><text x="48.0" y="94.1" font-size="17" text-anchor="middle" fill="#ffffff" font-weight="700"><tspan>O</tspan></text><path d="M 22.0,47.0 H 15.0 V 129.0 H 22.0" fill="none" stroke="#1d4ed8" stroke-width="1.8"/><path d="M 90.0,47.0 H 97.0 V 129.0 H 90.0" fill="none" stroke="#1d4ed8" stroke-width="1.8"/><text x="102.0" y="53.0" font-size="18" text-anchor="start" fill="#1d4ed8" font-weight="700"><tspan>−</tspan></text><text x="56.0" y="178.0" font-size="16" text-anchor="middle" fill="#14201f" font-weight="700"><tspan>hydroxid</tspan></text><text x="56.0" y="201.0" font-size="16" text-anchor="middle" fill="#1d4ed8" font-weight="700"><tspan>OH</tspan><tspan dy="-6.08" font-size="10.9">−</tspan></text><rect x="137.0" y="41.0" width="94.0" height="94.0" rx="12" fill="#cfe0fb" opacity="0.55"/><circle cx="184.0" cy="62.0" r="15.0" fill="#e5533d" stroke="#a93226" stroke-width="1.3"/><text x="184.0" y="67.0" font-size="14" text-anchor="middle" fill="#ffffff" font-weight="700"><tspan>O</tspan></text><circle cx="206.5" cy="101.0" r="15.0" fill="#e5533d" stroke="#a93226" stroke-width="1.3"/><text x="206.5" y="106.0" font-size="14" text-anchor="middle" fill="#ffffff" font-weight="700"><tspan>O</tspan></text><circle cx="161.5" cy="101.0" r="15.0" fill="#e5533d" stroke="#a93226" stroke-width="1.3"/><text x="161.5" y="106.0" font-size="14" text-anchor="middle" fill="#ffffff" font-weight="700"><tspan>O</tspan></text><circle cx="184.0" cy="88.0" r="16.0" fill="#3b6fd9" stroke="#1b4aa3" stroke-width="1.3"/><text x="184.0" y="93.4" font-size="15" text-anchor="middle" fill="#ffffff" font-weight="700"><tspan>N</tspan></text><path d="M 141.0,38.0 H 134.0 V 138.0 H 141.0" fill="none" stroke="#1d4ed8" stroke-width="1.8"/><path d="M 227.0,38.0 H 234.0 V 138.0 H 227.0" fill="none" stroke="#1d4ed8" stroke-width="1.8"/><text x="239.0" y="44.0" font-size="18" text-anchor="start" fill="#1d4ed8" font-weight="700"><tspan>−</tspan></text><text x="184.0" y="178.0" font-size="16" text-anchor="middle" fill="#14201f" font-weight="700"><tspan>nitrat</tspan></text><text x="184.0" y="201.0" font-size="16" text-anchor="middle" fill="#1d4ed8" font-weight="700"><tspan>NO</tspan><tspan dy="3.52" font-size="10.9">3</tspan><tspan dy="-9.60" font-size="10.9">−</tspan></text><rect x="267.0" y="41.0" width="94.0" height="94.0" rx="12" fill="#cfe0fb" opacity="0.55"/><circle cx="314.0" cy="62.0" r="15.0" fill="#e5533d" stroke="#a93226" stroke-width="1.3"/><text x="314.0" y="67.0" font-size="14" text-anchor="middle" fill="#ffffff" font-weight="700"><tspan>O</tspan></text><circle cx="336.5" cy="101.0" r="15.0" fill="#e5533d" stroke="#a93226" stroke-width="1.3"/><text x="336.5" y="106.0" font-size="14" text-anchor="middle" fill="#ffffff" font-weight="700"><tspan>O</tspan></text><circle cx="291.5" cy="101.0" r="15.0" fill="#e5533d" stroke="#a93226" stroke-width="1.3"/><text x="291.5" y="106.0" font-size="14" text-anchor="middle" fill="#ffffff" font-weight="700"><tspan>O</tspan></text><circle cx="314.0" cy="88.0" r="16.0" fill="#4b5563" stroke="#1f2937" stroke-width="1.3"/><text x="314.0" y="93.4" font-size="15" text-anchor="middle" fill="#ffffff" font-weight="700"><tspan>C</tspan></text><path d="M 271.0,38.0 H 264.0 V 138.0 H 271.0" fill="none" stroke="#1d4ed8" stroke-width="1.8"/><path d="M 357.0,38.0 H 364.0 V 138.0 H 357.0" fill="none" stroke="#1d4ed8" stroke-width="1.8"/><text x="369.0" y="44.0" font-size="18" text-anchor="start" fill="#1d4ed8" font-weight="700"><tspan>2−</tspan></text><text x="314.0" y="178.0" font-size="16" text-anchor="middle" fill="#14201f" font-weight="700"><tspan>carbonat</tspan></text><text x="314.0" y="201.0" font-size="16" text-anchor="middle" fill="#1d4ed8" font-weight="700"><tspan>CO</tspan><tspan dy="3.52" font-size="10.9">3</tspan><tspan dy="-9.60" font-size="10.9">2−</tspan></text><rect x="401.0" y="39.0" width="98.0" height="98.0" rx="12" fill="#cfe0fb" opacity="0.55"/><circle cx="469.1" cy="68.9" r="15.0" fill="#e5533d" stroke="#a93226" stroke-width="1.3"/><text x="469.1" y="73.9" font-size="14" text-anchor="middle" fill="#ffffff" font-weight="700"><tspan>O</tspan></text><circle cx="469.1" cy="107.1" r="15.0" fill="#e5533d" stroke="#a93226" stroke-width="1.3"/><text x="469.1" y="112.1" font-size="14" text-anchor="middle" fill="#ffffff" font-weight="700"><tspan>O</tspan></text><circle cx="430.9" cy="107.1" r="15.0" fill="#e5533d" stroke="#a93226" stroke-width="1.3"/><text x="430.9" y="112.1" font-size="14" text-anchor="middle" fill="#ffffff" font-weight="700"><tspan>O</tspan></text><circle cx="430.9" cy="68.9" r="15.0" fill="#e5533d" stroke="#a93226" stroke-width="1.3"/><text x="430.9" y="73.9" font-size="14" text-anchor="middle" fill="#ffffff" font-weight="700"><tspan>O</tspan></text><circle cx="450.0" cy="88.0" r="17.0" fill="#f2c94c" stroke="#b7950b" stroke-width="1.3"/><text x="450.0" y="93.8" font-size="16" text-anchor="middle" fill="#14201f" font-weight="700"><tspan>S</tspan></text><path d="M 405.0,36.0 H 398.0 V 140.0 H 405.0" fill="none" stroke="#1d4ed8" stroke-width="1.8"/><path d="M 495.0,36.0 H 502.0 V 140.0 H 495.0" fill="none" stroke="#1d4ed8" stroke-width="1.8"/><text x="507.0" y="42.0" font-size="18" text-anchor="start" fill="#1d4ed8" font-weight="700"><tspan>2−</tspan></text><text x="450.0" y="178.0" font-size="16" text-anchor="middle" fill="#14201f" font-weight="700"><tspan>sulfat</tspan></text><text x="450.0" y="201.0" font-size="16" text-anchor="middle" fill="#1d4ed8" font-weight="700"><tspan>SO</tspan><tspan dy="3.52" font-size="10.9">4</tspan><tspan dy="-9.60" font-size="10.9">2−</tspan></text><rect x="539.0" y="39.0" width="98.0" height="98.0" rx="12" fill="#cfe0fb" opacity="0.55"/><circle cx="607.1" cy="68.9" r="15.0" fill="#e5533d" stroke="#a93226" stroke-width="1.3"/><text x="607.1" y="73.9" font-size="14" text-anchor="middle" fill="#ffffff" font-weight="700"><tspan>O</tspan></text><circle cx="607.1" cy="107.1" r="15.0" fill="#e5533d" stroke="#a93226" stroke-width="1.3"/><text x="607.1" y="112.1" font-size="14" text-anchor="middle" fill="#ffffff" font-weight="700"><tspan>O</tspan></text><circle cx="568.9" cy="107.1" r="15.0" fill="#e5533d" stroke="#a93226" stroke-width="1.3"/><text x="568.9" y="112.1" font-size="14" text-anchor="middle" fill="#ffffff" font-weight="700"><tspan>O</tspan></text><circle cx="568.9" cy="68.9" r="15.0" fill="#e5533d" stroke="#a93226" stroke-width="1.3"/><text x="568.9" y="73.9" font-size="14" text-anchor="middle" fill="#ffffff" font-weight="700"><tspan>O</tspan></text><circle cx="588.0" cy="88.0" r="17.0" fill="#f08a24" stroke="#b45f0b" stroke-width="1.3"/><text x="588.0" y="93.8" font-size="16" text-anchor="middle" fill="#ffffff" font-weight="700"><tspan>P</tspan></text><path d="M 543.0,36.0 H 536.0 V 140.0 H 543.0" fill="none" stroke="#1d4ed8" stroke-width="1.8"/><path d="M 633.0,36.0 H 640.0 V 140.0 H 633.0" fill="none" stroke="#1d4ed8" stroke-width="1.8"/><text x="645.0" y="42.0" font-size="18" text-anchor="start" fill="#1d4ed8" font-weight="700"><tspan>3−</tspan></text><text x="588.0" y="178.0" font-size="16" text-anchor="middle" fill="#14201f" font-weight="700"><tspan>phosphat</tspan></text><text x="588.0" y="201.0" font-size="16" text-anchor="middle" fill="#1d4ed8" font-weight="700"><tspan>PO</tspan><tspan dy="3.52" font-size="10.9">4</tspan><tspan dy="-9.60" font-size="10.9">3−</tspan></text><rect x="681.0" y="47.0" width="82.0" height="82.0" rx="12" fill="#fbd3ca" opacity="0.55"/><circle cx="739.0" cy="71.0" r="11.0" fill="#ffffff" stroke="#8a9799" stroke-width="1.3"/><text x="739.0" y="74.6" font-size="10" text-anchor="middle" fill="#14201f" font-weight="700"><tspan>H</tspan></text><circle cx="739.0" cy="105.0" r="11.0" fill="#ffffff" stroke="#8a9799" stroke-width="1.3"/><text x="739.0" y="108.6" font-size="10" text-anchor="middle" fill="#14201f" font-weight="700"><tspan>H</tspan></text><circle cx="705.0" cy="105.0" r="11.0" fill="#ffffff" stroke="#8a9799" stroke-width="1.3"/><text x="705.0" y="108.6" font-size="10" text-anchor="middle" fill="#14201f" font-weight="700"><tspan>H</tspan></text><circle cx="705.0" cy="71.0" r="11.0" fill="#ffffff" stroke="#8a9799" stroke-width="1.3"/><text x="705.0" y="74.6" font-size="10" text-anchor="middle" fill="#14201f" font-weight="700"><tspan>H</tspan></text><circle cx="722.0" cy="88.0" r="17.0" fill="#3b6fd9" stroke="#1b4aa3" stroke-width="1.3"/><text x="722.0" y="93.8" font-size="16" text-anchor="middle" fill="#ffffff" font-weight="700"><tspan>N</tspan></text><path d="M 685.0,44.0 H 678.0 V 132.0 H 685.0" fill="none" stroke="#c0392b" stroke-width="1.8"/><path d="M 759.0,44.0 H 766.0 V 132.0 H 759.0" fill="none" stroke="#c0392b" stroke-width="1.8"/><text x="771.0" y="50.0" font-size="18" text-anchor="start" fill="#c0392b" font-weight="700"><tspan>+</tspan></text><text x="722.0" y="178.0" font-size="16" text-anchor="middle" fill="#14201f" font-weight="700"><tspan>ammonium</tspan></text><text x="722.0" y="201.0" font-size="16" text-anchor="middle" fill="#c0392b" font-weight="700"><tspan>NH</tspan><tspan dy="3.52" font-size="10.9">4</tspan><tspan dy="-9.60" font-size="10.9">+</tspan></text>
</svg>
