<svg xmlns="http://www.w3.org/2000/svg" viewBox="0 0 760 278" width="760" height="278" font-family="'Segoe UI', Roboto, 'Helvetica Neue', Arial, sans-serif" role="img" aria-label="Et bæger af skumplast med låg og termometer før og efter, at 5,55 gram calciumchlorid er opløst i 100,0 gram vand. Temperaturen stiger fra 20,0 til 29,7 grader">
<title>Et bæger af skumplast med låg og termometer før og efter, at 5,55 gram calciumchlorid er opløst i 100,0 gram vand. Temperaturen stiger fra 20,0 til 29,7 grader</title>
<text x="190.0" y="26.0" font-size="16" text-anchor="middle" fill="#14201f" font-weight="700"><tspan>Før</tspan></text><text x="560.0" y="26.0" font-size="16" text-anchor="middle" fill="#14201f" font-weight="700"><tspan>Efter</tspan></text><path d="M 138,130 L 150,240 H 230 L 242,130 Z" fill="#ffffff" stroke="#9aa7a9" stroke-width="7" stroke-linejoin="round"/><path d="M 144,164 L 151,236 H 229 L 236,164 Z" fill="#dcecf8"/><rect x="130.0" y="118.0" width="120.0" height="12.0" rx="4" fill="#e9eeee" stroke="#9aa7a9" stroke-width="2"/><rect x="200.0" y="52.0" width="8.0" height="150.0" rx="4" fill="#ffffff" stroke="#556766" stroke-width="1.4"/><rect x="202.0" y="138.0" width="4.0" height="60.0" rx="2" fill="#d1432f"/><circle cx="204.0" cy="202.0" r="6.0" fill="#d1432f" stroke="#556766" stroke-width="1.2"/><text x="218.0" y="70.0" font-size="16" text-anchor="start" fill="#b52a1e" font-weight="700"><tspan>20,0 °C</tspan></text><path d="M 508,130 L 520,240 H 600 L 612,130 Z" fill="#ffffff" stroke="#9aa7a9" stroke-width="7" stroke-linejoin="round"/><path d="M 514,164 L 521,236 H 599 L 606,164 Z" fill="#dcecf8"/><rect x="500.0" y="118.0" width="120.0" height="12.0" rx="4" fill="#e9eeee" stroke="#9aa7a9" stroke-width="2"/><rect x="570.0" y="52.0" width="8.0" height="150.0" rx="4" fill="#ffffff" stroke="#556766" stroke-width="1.4"/><rect x="572.0" y="98.0" width="4.0" height="100.0" rx="2" fill="#d1432f"/><circle cx="574.0" cy="202.0" r="6.0" fill="#d1432f" stroke="#556766" stroke-width="1.2"/><text x="588.0" y="70.0" font-size="16" text-anchor="start" fill="#b52a1e" font-weight="700"><tspan>29,7 °C</tspan></text><line x1="322.0" y1="170.0" x2="410.0" y2="170.0" stroke="#556766" stroke-width="2.2" stroke-linecap="round"/><polygon points="420.0,170.0 410.0,175.0 410.0,165.0" fill="#556766"/><text x="371.0" y="152.0" font-size="13.5" text-anchor="middle" fill="#14201f" font-weight="700"><tspan>5,55 g CaCl</tspan><tspan dy="2.97" font-size="9.2">2</tspan></text><text x="371.0" y="192.0" font-size="13" text-anchor="middle" fill="#556766"><tspan>opløses</tspan></text><text x="190.0" y="264.0" font-size="13" text-anchor="middle" fill="#556766"><tspan>100,0 g vand i et bæger af skumplast</tspan></text><text x="560.0" y="264.0" font-size="13" text-anchor="middle" fill="#c2410c" font-weight="700"><tspan>temperaturen er steget 9,7 K</tspan></text><line x1="124.0" y1="150.0" x2="80.0" y2="110.0" stroke="#556766" stroke-width="1.1" stroke-linecap="round"/><circle cx="124.0" cy="150.0" r="2.4" fill="#556766"/><text x="80.0" y="102.0" font-size="12.5" text-anchor="middle" fill="#556766"><tspan>skumplast</tspan></text><text x="80.0" y="86.0" font-size="12.5" text-anchor="middle" fill="#556766"><tspan>låg og bæger af</tspan></text>
</svg>
