<svg xmlns="http://www.w3.org/2000/svg" viewBox="0 0 756 122" width="756" height="122" font-family="'Segoe UI', Roboto, 'Helvetica Neue', Arial, sans-serif" role="img" aria-label="Tre zigzagformler for stoffer med molekylformlen C8H18. A: fem carbonatomer i kæden med to methylgrupper på det andet og én på det fjerde. B: en lige kæde på otte carbonatomer. C: syv carbonatomer i kæden med en methylgruppe på det andet">
<title>Tre zigzagformler for stoffer med molekylformlen C8H18. A: fem carbonatomer i kæden med to methylgrupper på det andet og én på det fjerde. B: en lige kæde på otte carbonatomer. C: syv carbonatomer i kæden med en methylgruppe på det andet</title>
<g transform="translate(53.0 71.0)"><line x1="0.0" y1="0.0" x2="31.2" y2="-18.0" stroke="#14201f" stroke-width="2.6" stroke-linecap="round"/><line x1="31.2" y1="-18.0" x2="62.4" y2="0.0" stroke="#14201f" stroke-width="2.6" stroke-linecap="round"/><line x1="62.4" y1="0.0" x2="93.5" y2="-18.0" stroke="#14201f" stroke-width="2.6" stroke-linecap="round"/><line x1="93.5" y1="-18.0" x2="124.7" y2="0.0" stroke="#14201f" stroke-width="2.6" stroke-linecap="round"/><line x1="31.2" y1="-18.0" x2="12.1" y2="-48.5" stroke="#14201f" stroke-width="2.6" stroke-linecap="round"/><line x1="31.2" y1="-18.0" x2="50.3" y2="-48.5" stroke="#14201f" stroke-width="2.6" stroke-linecap="round"/><line x1="93.5" y1="-18.0" x2="93.5" y2="-54.0" stroke="#14201f" stroke-width="2.6" stroke-linecap="round"/></g><text x="115.4" y="106.0" font-size="14.5" text-anchor="middle" fill="#14201f" font-weight="700"><tspan>A</tspan></text><g transform="translate(237.7 71.0)"><line x1="0.0" y1="0.0" x2="31.2" y2="-18.0" stroke="#14201f" stroke-width="2.6" stroke-linecap="round"/><line x1="31.2" y1="-18.0" x2="62.4" y2="0.0" stroke="#14201f" stroke-width="2.6" stroke-linecap="round"/><line x1="62.4" y1="0.0" x2="93.5" y2="-18.0" stroke="#14201f" stroke-width="2.6" stroke-linecap="round"/><line x1="93.5" y1="-18.0" x2="124.7" y2="0.0" stroke="#14201f" stroke-width="2.6" stroke-linecap="round"/><line x1="124.7" y1="0.0" x2="155.9" y2="-18.0" stroke="#14201f" stroke-width="2.6" stroke-linecap="round"/><line x1="155.9" y1="-18.0" x2="187.1" y2="0.0" stroke="#14201f" stroke-width="2.6" stroke-linecap="round"/><line x1="187.1" y1="0.0" x2="218.2" y2="-18.0" stroke="#14201f" stroke-width="2.6" stroke-linecap="round"/></g><text x="346.8" y="106.0" font-size="14.5" text-anchor="middle" fill="#14201f" font-weight="700"><tspan>B</tspan></text><g transform="translate(515.9 71.0)"><line x1="0.0" y1="0.0" x2="31.2" y2="-18.0" stroke="#14201f" stroke-width="2.6" stroke-linecap="round"/><line x1="31.2" y1="-18.0" x2="62.4" y2="0.0" stroke="#14201f" stroke-width="2.6" stroke-linecap="round"/><line x1="62.4" y1="0.0" x2="93.5" y2="-18.0" stroke="#14201f" stroke-width="2.6" stroke-linecap="round"/><line x1="93.5" y1="-18.0" x2="124.7" y2="0.0" stroke="#14201f" stroke-width="2.6" stroke-linecap="round"/><line x1="124.7" y1="0.0" x2="155.9" y2="-18.0" stroke="#14201f" stroke-width="2.6" stroke-linecap="round"/><line x1="155.9" y1="-18.0" x2="187.1" y2="0.0" stroke="#14201f" stroke-width="2.6" stroke-linecap="round"/><line x1="31.2" y1="-18.0" x2="31.2" y2="-54.0" stroke="#14201f" stroke-width="2.6" stroke-linecap="round"/></g><text x="609.5" y="106.0" font-size="14.5" text-anchor="middle" fill="#14201f" font-weight="700"><tspan>C</tspan></text>
</svg>
