<svg xmlns="http://www.w3.org/2000/svg" viewBox="0 0 756 148" width="756" height="148" font-family="'Segoe UI', Roboto, 'Helvetica Neue', Arial, sans-serif" role="img" aria-label="Zigzagformler for methylethanoat, propylmethanoat, ethylpentanoat og butylpropanoat med syredelen og alkoholdelen i hver sin farve">
<title>Zigzagformler for methylethanoat, propylmethanoat, ethylpentanoat og butylpropanoat med syredelen og alkoholdelen i hver sin farve</title>
<g transform="translate(67.8 65.0)"><line x1="0.0" y1="0.0" x2="24.2" y2="-14.0" stroke="#0f766e" stroke-width="2.6" stroke-linecap="round"/><line x1="24.2" y1="-14.0" x2="39.5" y2="-5.2" stroke="#14201f" stroke-width="2.6" stroke-linecap="round"/><line x1="57.5" y1="-5.2" x2="72.7" y2="-14.0" stroke="#b45309" stroke-width="2.6" stroke-linecap="round"/><text x="48.5" y="6.3" font-size="18" text-anchor="middle" fill="#b45309" font-weight="700"><tspan>O</tspan></text><line x1="21.1" y1="-14.0" x2="21.1" y2="-36.4" stroke="#0f766e" stroke-width="2.6" stroke-linecap="round"/><line x1="27.3" y1="-14.0" x2="27.3" y2="-36.4" stroke="#0f766e" stroke-width="2.6" stroke-linecap="round"/><text x="24.2" y="-40.0" font-size="18" text-anchor="middle" fill="#0f766e" font-weight="700"><tspan>O</tspan></text></g><text x="104.2" y="100.0" font-size="14" text-anchor="middle" fill="#14201f" font-weight="700"><tspan>a. methylethanoat</tspan></text><g transform="translate(203.0 65.0)"><line x1="9.0" y1="-5.2" x2="24.2" y2="-14.0" stroke="#0f766e" stroke-width="2.6" stroke-linecap="round"/><line x1="24.2" y1="-14.0" x2="39.5" y2="-5.2" stroke="#14201f" stroke-width="2.6" stroke-linecap="round"/><line x1="57.5" y1="-5.2" x2="72.7" y2="-14.0" stroke="#b45309" stroke-width="2.6" stroke-linecap="round"/><line x1="72.7" y1="-14.0" x2="97.0" y2="0.0" stroke="#b45309" stroke-width="2.6" stroke-linecap="round"/><line x1="97.0" y1="0.0" x2="121.2" y2="-14.0" stroke="#b45309" stroke-width="2.6" stroke-linecap="round"/><text x="0.0" y="6.3" font-size="18" text-anchor="middle" fill="#0f766e" font-weight="700"><tspan>H</tspan></text><text x="48.5" y="6.3" font-size="18" text-anchor="middle" fill="#b45309" font-weight="700"><tspan>O</tspan></text><line x1="21.1" y1="-14.0" x2="21.1" y2="-36.4" stroke="#0f766e" stroke-width="2.6" stroke-linecap="round"/><line x1="27.3" y1="-14.0" x2="27.3" y2="-36.4" stroke="#0f766e" stroke-width="2.6" stroke-linecap="round"/><text x="24.2" y="-40.0" font-size="18" text-anchor="middle" fill="#0f766e" font-weight="700"><tspan>O</tspan></text></g><text x="260.3" y="100.0" font-size="14" text-anchor="middle" fill="#14201f" font-weight="700"><tspan>b. propylmethanoat</tspan></text><g transform="translate(352.3 51.0)"><line x1="0.0" y1="0.0" x2="24.2" y2="14.0" stroke="#0f766e" stroke-width="2.6" stroke-linecap="round"/><line x1="24.2" y1="14.0" x2="48.5" y2="0.0" stroke="#0f766e" stroke-width="2.6" stroke-linecap="round"/><line x1="48.5" y1="0.0" x2="72.7" y2="14.0" stroke="#0f766e" stroke-width="2.6" stroke-linecap="round"/><line x1="72.7" y1="14.0" x2="97.0" y2="0.0" stroke="#0f766e" stroke-width="2.6" stroke-linecap="round"/><line x1="97.0" y1="0.0" x2="112.2" y2="8.8" stroke="#14201f" stroke-width="2.6" stroke-linecap="round"/><line x1="130.3" y1="8.8" x2="145.5" y2="0.0" stroke="#b45309" stroke-width="2.6" stroke-linecap="round"/><line x1="145.5" y1="0.0" x2="169.7" y2="14.0" stroke="#b45309" stroke-width="2.6" stroke-linecap="round"/><text x="121.2" y="20.3" font-size="18" text-anchor="middle" fill="#b45309" font-weight="700"><tspan>O</tspan></text><line x1="93.9" y1="0.0" x2="93.9" y2="-22.4" stroke="#0f766e" stroke-width="2.6" stroke-linecap="round"/><line x1="100.1" y1="0.0" x2="100.1" y2="-22.4" stroke="#0f766e" stroke-width="2.6" stroke-linecap="round"/><text x="97.0" y="-26.0" font-size="18" text-anchor="middle" fill="#0f766e" font-weight="700"><tspan>O</tspan></text></g><text x="437.2" y="100.0" font-size="14" text-anchor="middle" fill="#14201f" font-weight="700"><tspan>c. ethylpentanoat</tspan></text><g transform="translate(546.1 51.0)"><line x1="0.0" y1="0.0" x2="24.2" y2="14.0" stroke="#0f766e" stroke-width="2.6" stroke-linecap="round"/><line x1="24.2" y1="14.0" x2="48.5" y2="0.0" stroke="#0f766e" stroke-width="2.6" stroke-linecap="round"/><line x1="48.5" y1="0.0" x2="63.7" y2="8.8" stroke="#14201f" stroke-width="2.6" stroke-linecap="round"/><line x1="81.8" y1="8.8" x2="97.0" y2="0.0" stroke="#b45309" stroke-width="2.6" stroke-linecap="round"/><line x1="97.0" y1="0.0" x2="121.2" y2="14.0" stroke="#b45309" stroke-width="2.6" stroke-linecap="round"/><line x1="121.2" y1="14.0" x2="145.5" y2="0.0" stroke="#b45309" stroke-width="2.6" stroke-linecap="round"/><line x1="145.5" y1="0.0" x2="169.7" y2="14.0" stroke="#b45309" stroke-width="2.6" stroke-linecap="round"/><text x="72.7" y="20.3" font-size="18" text-anchor="middle" fill="#b45309" font-weight="700"><tspan>O</tspan></text><line x1="45.4" y1="0.0" x2="45.4" y2="-22.4" stroke="#0f766e" stroke-width="2.6" stroke-linecap="round"/><line x1="51.6" y1="0.0" x2="51.6" y2="-22.4" stroke="#0f766e" stroke-width="2.6" stroke-linecap="round"/><text x="48.5" y="-26.0" font-size="18" text-anchor="middle" fill="#0f766e" font-weight="700"><tspan>O</tspan></text></g><text x="631.0" y="100.0" font-size="14" text-anchor="middle" fill="#14201f" font-weight="700"><tspan>d. butylpropanoat</tspan></text><line x1="214.0" y1="129.5" x2="240.0" y2="129.5" stroke="#0f766e" stroke-width="4" stroke-linecap="round"/><text x="248.0" y="134.0" font-size="13" text-anchor="start" fill="#0f766e" font-weight="700"><tspan>kommer fra syren</tspan></text><line x1="404.0" y1="129.5" x2="430.0" y2="129.5" stroke="#b45309" stroke-width="4" stroke-linecap="round"/><text x="438.0" y="134.0" font-size="13" text-anchor="start" fill="#b45309" font-weight="700"><tspan>kommer fra alkoholen</tspan></text>
</svg>
