<svg xmlns="http://www.w3.org/2000/svg" viewBox="0 0 756 234" width="756" height="234" font-family="'Segoe UI', Roboto, 'Helvetica Neue', Arial, sans-serif" role="img" aria-label="En sæbeion har en upolær hale og et ladet hoved. I sæbevand sætter halerne sig i en fedtdråbe, og de ladede hoveder vender ud mod vandet">
<title>En sæbeion har en upolær hale og et ladet hoved. I sæbevand sætter halerne sig i en fedtdråbe, og de ladede hoveder vender ud mod vandet</title>
<text x="186.0" y="26.0" font-size="15.5" text-anchor="middle" fill="#0f766e" font-weight="700"><tspan>En sæbeion</tspan></text><line x1="60.0" y1="112.0" x2="73.0" y2="119.5" stroke="#b9770e" stroke-width="2.6" stroke-linecap="round"/><line x1="73.0" y1="119.5" x2="86.0" y2="112.0" stroke="#b9770e" stroke-width="2.6" stroke-linecap="round"/><line x1="86.0" y1="112.0" x2="99.0" y2="119.5" stroke="#b9770e" stroke-width="2.6" stroke-linecap="round"/><line x1="99.0" y1="119.5" x2="112.0" y2="112.0" stroke="#b9770e" stroke-width="2.6" stroke-linecap="round"/><line x1="112.0" y1="112.0" x2="125.0" y2="119.5" stroke="#b9770e" stroke-width="2.6" stroke-linecap="round"/><line x1="125.0" y1="119.5" x2="137.9" y2="112.0" stroke="#b9770e" stroke-width="2.6" stroke-linecap="round"/><line x1="137.9" y1="112.0" x2="150.9" y2="119.5" stroke="#b9770e" stroke-width="2.6" stroke-linecap="round"/><line x1="150.9" y1="119.5" x2="163.9" y2="112.0" stroke="#b9770e" stroke-width="2.6" stroke-linecap="round"/><line x1="163.9" y1="112.0" x2="176.9" y2="119.5" stroke="#b9770e" stroke-width="2.6" stroke-linecap="round"/><line x1="176.9" y1="119.5" x2="189.9" y2="112.0" stroke="#b9770e" stroke-width="2.6" stroke-linecap="round"/><line x1="189.9" y1="112.0" x2="202.9" y2="119.5" stroke="#b9770e" stroke-width="2.6" stroke-linecap="round"/><line x1="202.9" y1="119.5" x2="215.9" y2="112.0" stroke="#b9770e" stroke-width="2.6" stroke-linecap="round"/><line x1="215.9" y1="112.0" x2="228.9" y2="119.5" stroke="#b9770e" stroke-width="2.6" stroke-linecap="round"/><line x1="228.9" y1="119.5" x2="241.9" y2="112.0" stroke="#b9770e" stroke-width="2.6" stroke-linecap="round"/><circle cx="263.9" cy="112.0" r="17.0" fill="#cfe0fb" stroke="#1d4ed8" stroke-width="1.8"/><text x="263.9" y="117.0" font-size="11.5" text-anchor="middle" fill="#12307f" font-weight="700"><tspan>COO</tspan><tspan dy="-4.37" font-size="7.8">−</tspan></text><text x="150.9" y="154.0" font-size="13" text-anchor="middle" fill="#b9770e" font-weight="700"><tspan>upolær hale</tspan></text><text x="150.9" y="171.0" font-size="12" text-anchor="middle" fill="#556766"><tspan>blander sig med fedt</tspan></text><text x="263.9" y="64.0" font-size="13" text-anchor="middle" fill="#1d4ed8" font-weight="700"><tspan>ladet hoved</tspan></text><text x="263.9" y="81.0" font-size="12" text-anchor="middle" fill="#556766"><tspan>blander sig med vand</tspan></text><line x1="378.0" y1="12.0" x2="378.0" y2="220.0" stroke="#c3d6d4" stroke-width="1.4" stroke-linecap="round"/><text x="566.0" y="26.0" font-size="15.5" text-anchor="middle" fill="#0f766e" font-weight="700"><tspan>En fedtdråbe i sæbevand</tspan></text><circle cx="566.0" cy="128.0" r="34.0" fill="#f4d774" stroke="#b08a12" stroke-width="1.6"/><text x="566.0" y="133.0" font-size="13" text-anchor="middle" fill="#14201f" font-weight="700"><tspan>fedt</tspan></text><line x1="588.0" y1="128.0" x2="628.0" y2="128.0" stroke="#b9770e" stroke-width="2.6" stroke-linecap="round"/><circle cx="636.0" cy="128.0" r="8.0" fill="#cfe0fb" stroke="#1d4ed8" stroke-width="1.6"/><text x="636.0" y="132.0" font-size="11" text-anchor="middle" fill="#12307f" font-weight="700"><tspan>−</tspan></text><line x1="585.8" y1="137.5" x2="621.9" y2="154.9" stroke="#b9770e" stroke-width="2.6" stroke-linecap="round"/><circle cx="629.1" cy="158.4" r="8.0" fill="#cfe0fb" stroke="#1d4ed8" stroke-width="1.6"/><text x="629.1" y="162.4" font-size="11" text-anchor="middle" fill="#12307f" font-weight="700"><tspan>−</tspan></text><line x1="579.7" y1="145.2" x2="604.7" y2="176.5" stroke="#b9770e" stroke-width="2.6" stroke-linecap="round"/><circle cx="609.6" cy="182.7" r="8.0" fill="#cfe0fb" stroke="#1d4ed8" stroke-width="1.6"/><text x="609.6" y="186.7" font-size="11" text-anchor="middle" fill="#12307f" font-weight="700"><tspan>−</tspan></text><line x1="570.9" y1="149.4" x2="579.8" y2="188.4" stroke="#b9770e" stroke-width="2.6" stroke-linecap="round"/><circle cx="581.6" cy="196.2" r="8.0" fill="#cfe0fb" stroke="#1d4ed8" stroke-width="1.6"/><text x="581.6" y="200.2" font-size="11" text-anchor="middle" fill="#12307f" font-weight="700"><tspan>−</tspan></text><line x1="561.1" y1="149.4" x2="552.2" y2="188.4" stroke="#b9770e" stroke-width="2.6" stroke-linecap="round"/><circle cx="550.4" cy="196.2" r="8.0" fill="#cfe0fb" stroke="#1d4ed8" stroke-width="1.6"/><text x="550.4" y="200.2" font-size="11" text-anchor="middle" fill="#12307f" font-weight="700"><tspan>−</tspan></text><line x1="552.3" y1="145.2" x2="527.3" y2="176.5" stroke="#b9770e" stroke-width="2.6" stroke-linecap="round"/><circle cx="522.4" cy="182.7" r="8.0" fill="#cfe0fb" stroke="#1d4ed8" stroke-width="1.6"/><text x="522.4" y="186.7" font-size="11" text-anchor="middle" fill="#12307f" font-weight="700"><tspan>−</tspan></text><line x1="546.2" y1="137.5" x2="510.1" y2="154.9" stroke="#b9770e" stroke-width="2.6" stroke-linecap="round"/><circle cx="502.9" cy="158.4" r="8.0" fill="#cfe0fb" stroke="#1d4ed8" stroke-width="1.6"/><text x="502.9" y="162.4" font-size="11" text-anchor="middle" fill="#12307f" font-weight="700"><tspan>−</tspan></text><line x1="544.0" y1="128.0" x2="504.0" y2="128.0" stroke="#b9770e" stroke-width="2.6" stroke-linecap="round"/><circle cx="496.0" cy="128.0" r="8.0" fill="#cfe0fb" stroke="#1d4ed8" stroke-width="1.6"/><text x="496.0" y="132.0" font-size="11" text-anchor="middle" fill="#12307f" font-weight="700"><tspan>−</tspan></text><line x1="546.2" y1="118.5" x2="510.1" y2="101.1" stroke="#b9770e" stroke-width="2.6" stroke-linecap="round"/><circle cx="502.9" cy="97.6" r="8.0" fill="#cfe0fb" stroke="#1d4ed8" stroke-width="1.6"/><text x="502.9" y="101.6" font-size="11" text-anchor="middle" fill="#12307f" font-weight="700"><tspan>−</tspan></text><line x1="552.3" y1="110.8" x2="527.3" y2="79.5" stroke="#b9770e" stroke-width="2.6" stroke-linecap="round"/><circle cx="522.4" cy="73.3" r="8.0" fill="#cfe0fb" stroke="#1d4ed8" stroke-width="1.6"/><text x="522.4" y="77.3" font-size="11" text-anchor="middle" fill="#12307f" font-weight="700"><tspan>−</tspan></text><line x1="561.1" y1="106.6" x2="552.2" y2="67.6" stroke="#b9770e" stroke-width="2.6" stroke-linecap="round"/><circle cx="550.4" cy="59.8" r="8.0" fill="#cfe0fb" stroke="#1d4ed8" stroke-width="1.6"/><text x="550.4" y="63.8" font-size="11" text-anchor="middle" fill="#12307f" font-weight="700"><tspan>−</tspan></text><line x1="570.9" y1="106.6" x2="579.8" y2="67.6" stroke="#b9770e" stroke-width="2.6" stroke-linecap="round"/><circle cx="581.6" cy="59.8" r="8.0" fill="#cfe0fb" stroke="#1d4ed8" stroke-width="1.6"/><text x="581.6" y="63.8" font-size="11" text-anchor="middle" fill="#12307f" font-weight="700"><tspan>−</tspan></text><line x1="579.7" y1="110.8" x2="604.7" y2="79.5" stroke="#b9770e" stroke-width="2.6" stroke-linecap="round"/><circle cx="609.6" cy="73.3" r="8.0" fill="#cfe0fb" stroke="#1d4ed8" stroke-width="1.6"/><text x="609.6" y="77.3" font-size="11" text-anchor="middle" fill="#12307f" font-weight="700"><tspan>−</tspan></text><line x1="585.8" y1="118.5" x2="621.9" y2="101.1" stroke="#b9770e" stroke-width="2.6" stroke-linecap="round"/><circle cx="629.1" cy="97.6" r="8.0" fill="#cfe0fb" stroke="#1d4ed8" stroke-width="1.6"/><text x="629.1" y="101.6" font-size="11" text-anchor="middle" fill="#12307f" font-weight="700"><tspan>−</tspan></text><text x="566.0" y="222.0" font-size="12" text-anchor="middle" fill="#556766"><tspan>halerne stikker ind i fedtet, og hovederne vender ud mod vandet</tspan></text>
</svg>
