<svg xmlns="http://www.w3.org/2000/svg" viewBox="0 0 756 184" width="756" height="184" font-family="'Segoe UI', Roboto, 'Helvetica Neue', Arial, sans-serif" role="img" aria-label="De to konserveringsmidler benzoesyre og sorbinsyre. Benzoesyre har en benzenring med en carboxylgruppe, og sorbinsyre har en kæde med to dobbeltbindinger og en carboxylgruppe">
<title>De to konserveringsmidler benzoesyre og sorbinsyre. Benzoesyre har en benzenring med en carboxylgruppe, og sorbinsyre har en kæde med to dobbeltbindinger og en carboxylgruppe</title>
<rect x="6.0" y="8.0" width="368.0" height="168.0" rx="10" fill="#f4f8f7" stroke="#c3d6d4" stroke-width="1.2"/><g transform="translate(155.1 90.6)"><line x1="0.0" y1="-30.0" x2="26.0" y2="-15.0" stroke="#14201f" stroke-width="2.4" stroke-linecap="round"/><line x1="1.6" y1="-23.2" x2="19.3" y2="-13.0" stroke="#14201f" stroke-width="2.4" stroke-linecap="round"/><line x1="26.0" y1="-15.0" x2="26.0" y2="15.0" stroke="#14201f" stroke-width="2.4" stroke-linecap="round"/><line x1="26.0" y1="15.0" x2="0.0" y2="30.0" stroke="#14201f" stroke-width="2.4" stroke-linecap="round"/><line x1="19.3" y1="13.0" x2="1.6" y2="23.2" stroke="#14201f" stroke-width="2.4" stroke-linecap="round"/><line x1="0.0" y1="30.0" x2="-26.0" y2="15.0" stroke="#14201f" stroke-width="2.4" stroke-linecap="round"/><line x1="-26.0" y1="15.0" x2="-26.0" y2="-15.0" stroke="#14201f" stroke-width="2.4" stroke-linecap="round"/><line x1="-20.9" y1="10.2" x2="-20.9" y2="-10.2" stroke="#14201f" stroke-width="2.4" stroke-linecap="round"/><line x1="-26.0" y1="-15.0" x2="0.0" y2="-30.0" stroke="#14201f" stroke-width="2.4" stroke-linecap="round"/><line x1="26.0" y1="-15.0" x2="52.0" y2="-30.0" stroke="#14201f" stroke-width="2.4" stroke-linecap="round"/><line x1="49.1" y1="-30.0" x2="49.1" y2="-50.1" stroke="#14201f" stroke-width="2.4" stroke-linecap="round"/><line x1="54.8" y1="-30.0" x2="54.8" y2="-50.1" stroke="#14201f" stroke-width="2.4" stroke-linecap="round"/><line x1="52.0" y1="-30.0" x2="69.4" y2="-20.0" stroke="#14201f" stroke-width="2.4" stroke-linecap="round"/><text x="52.0" y="-54.4" font-size="16" text-anchor="middle" fill="#14201f" font-weight="700"><tspan>O</tspan></text><text x="72.0" y="-9.4" font-size="16" text-anchor="start" fill="#14201f" font-weight="700"><tspan>OH</tspan></text></g><text x="190.0" y="142.0" font-size="14.5" text-anchor="middle" fill="#14201f" font-weight="700"><tspan>benzoesyre</tspan></text><text x="190.0" y="161.0" font-size="12.5" text-anchor="middle" fill="#556766"><tspan>E210, pK</tspan><tspan dy="2.75" font-size="8.5">s</tspan><tspan dy="-2.75"> = 4,2</tspan></text><rect x="382.0" y="8.0" width="368.0" height="168.0" rx="10" fill="#f4f8f7" stroke="#c3d6d4" stroke-width="1.2"/><g transform="translate(479.2 93.3)"><line x1="0.0" y1="0.0" x2="26.0" y2="-15.0" stroke="#14201f" stroke-width="2.4" stroke-linecap="round"/><line x1="26.0" y1="-15.0" x2="52.0" y2="-0.0" stroke="#14201f" stroke-width="2.4" stroke-linecap="round"/><line x1="27.6" y1="-8.2" x2="45.3" y2="2.0" stroke="#14201f" stroke-width="2.4" stroke-linecap="round"/><line x1="52.0" y1="-0.0" x2="77.9" y2="-15.0" stroke="#14201f" stroke-width="2.4" stroke-linecap="round"/><line x1="77.9" y1="-15.0" x2="103.9" y2="-0.0" stroke="#14201f" stroke-width="2.4" stroke-linecap="round"/><line x1="79.5" y1="-8.2" x2="97.2" y2="2.0" stroke="#14201f" stroke-width="2.4" stroke-linecap="round"/><line x1="103.9" y1="-0.0" x2="129.9" y2="-15.0" stroke="#14201f" stroke-width="2.4" stroke-linecap="round"/><line x1="127.1" y1="-15.0" x2="127.1" y2="-35.1" stroke="#14201f" stroke-width="2.4" stroke-linecap="round"/><line x1="132.8" y1="-15.0" x2="132.8" y2="-35.1" stroke="#14201f" stroke-width="2.4" stroke-linecap="round"/><line x1="129.9" y1="-15.0" x2="147.3" y2="-5.0" stroke="#14201f" stroke-width="2.4" stroke-linecap="round"/><text x="129.9" y="-39.4" font-size="16" text-anchor="middle" fill="#14201f" font-weight="700"><tspan>O</tspan></text><text x="150.0" y="5.6" font-size="16" text-anchor="start" fill="#14201f" font-weight="700"><tspan>OH</tspan></text></g><text x="566.0" y="142.0" font-size="14.5" text-anchor="middle" fill="#14201f" font-weight="700"><tspan>sorbinsyre</tspan></text><text x="566.0" y="161.0" font-size="12.5" text-anchor="middle" fill="#556766"><tspan>E200, pK</tspan><tspan dy="2.75" font-size="8.5">s</tspan><tspan dy="-2.75"> = 4,8</tspan></text>
</svg>
