<svg xmlns="http://www.w3.org/2000/svg" viewBox="0 0 690 316" width="690" height="316" font-family="'Segoe UI', Roboto, 'Helvetica Neue', Arial, sans-serif" role="img" aria-label="Hastigheden af reaktionen mod højre falder fra 5,0 mM pr. sekund, og hastigheden af reaktionen mod venstre stiger fra 0. Efter omkring 35 sekunder er de begge 2,5 mM pr. sekund">
<title>Hastigheden af reaktionen mod højre falder fra 5,0 mM pr. sekund, og hastigheden af reaktionen mod venstre stiger fra 0. Efter omkring 35 sekunder er de begge 2,5 mM pr. sekund</title>
<rect x="409.2" y="24" width="230.8" height="240" fill="#e3f2f0"/><line x1="86.0" y1="264.0" x2="640.0" y2="264.0" stroke="#dfe9e8" stroke-width="1" stroke-linecap="round"/><text x="76.0" y="268.5" font-size="13" text-anchor="end" fill="#556766"><tspan>0</tspan></text><line x1="86.0" y1="216.0" x2="640.0" y2="216.0" stroke="#dfe9e8" stroke-width="1" stroke-linecap="round"/><text x="76.0" y="220.5" font-size="13" text-anchor="end" fill="#556766"><tspan>1</tspan></text><line x1="86.0" y1="168.0" x2="640.0" y2="168.0" stroke="#dfe9e8" stroke-width="1" stroke-linecap="round"/><text x="76.0" y="172.5" font-size="13" text-anchor="end" fill="#556766"><tspan>2</tspan></text><line x1="86.0" y1="120.0" x2="640.0" y2="120.0" stroke="#dfe9e8" stroke-width="1" stroke-linecap="round"/><text x="76.0" y="124.5" font-size="13" text-anchor="end" fill="#556766"><tspan>3</tspan></text><line x1="86.0" y1="72.0" x2="640.0" y2="72.0" stroke="#dfe9e8" stroke-width="1" stroke-linecap="round"/><text x="76.0" y="76.5" font-size="13" text-anchor="end" fill="#556766"><tspan>4</tspan></text><line x1="86.0" y1="24.0" x2="640.0" y2="24.0" stroke="#dfe9e8" stroke-width="1" stroke-linecap="round"/><text x="76.0" y="28.5" font-size="13" text-anchor="end" fill="#556766"><tspan>5</tspan></text><line x1="86.0" y1="264.0" x2="640.0" y2="264.0" stroke="#556766" stroke-width="1.3" stroke-linecap="round"/><line x1="86.0" y1="264.0" x2="86.0" y2="270.0" stroke="#556766" stroke-width="1.2" stroke-linecap="round"/><text x="86.0" y="286.0" font-size="13" text-anchor="middle" fill="#556766"><tspan>0</tspan></text><line x1="178.3" y1="264.0" x2="178.3" y2="270.0" stroke="#556766" stroke-width="1.2" stroke-linecap="round"/><text x="178.3" y="286.0" font-size="13" text-anchor="middle" fill="#556766"><tspan>10</tspan></text><line x1="270.7" y1="264.0" x2="270.7" y2="270.0" stroke="#556766" stroke-width="1.2" stroke-linecap="round"/><text x="270.7" y="286.0" font-size="13" text-anchor="middle" fill="#556766"><tspan>20</tspan></text><line x1="363.0" y1="264.0" x2="363.0" y2="270.0" stroke="#556766" stroke-width="1.2" stroke-linecap="round"/><text x="363.0" y="286.0" font-size="13" text-anchor="middle" fill="#556766"><tspan>30</tspan></text><line x1="455.3" y1="264.0" x2="455.3" y2="270.0" stroke="#556766" stroke-width="1.2" stroke-linecap="round"/><text x="455.3" y="286.0" font-size="13" text-anchor="middle" fill="#556766"><tspan>40</tspan></text><line x1="547.7" y1="264.0" x2="547.7" y2="270.0" stroke="#556766" stroke-width="1.2" stroke-linecap="round"/><text x="547.7" y="286.0" font-size="13" text-anchor="middle" fill="#556766"><tspan>50</tspan></text><line x1="640.0" y1="264.0" x2="640.0" y2="270.0" stroke="#556766" stroke-width="1.2" stroke-linecap="round"/><text x="640.0" y="286.0" font-size="13" text-anchor="middle" fill="#556766"><tspan>60</tspan></text><text x="363.0" y="310.0" font-size="13.5" text-anchor="middle" fill="#556766"><tspan>tid i sekunder</tspan></text><text x="34" y="144" font-size="13.5" fill="#556766" text-anchor="middle" transform="rotate(-90 34 144)"><tspan>reaktionshastighed i mM/s</tspan></text><polyline points="86.0,24.0 87.8,26.4 89.7,28.8 91.5,31.1 93.4,33.4 95.2,35.7 97.1,38.0 98.9,40.2 100.8,42.4 102.6,44.6 104.5,46.7 106.3,48.8 108.2,50.9 110.0,53.0 111.9,55.0 113.7,57.0 115.5,59.0 117.4,60.9 119.2,62.8 121.1,64.7 122.9,66.5 124.8,68.3 126.6,70.1 128.5,71.8 130.3,73.6 132.2,75.2 134.0,76.9 135.9,78.5 137.7,80.1 139.6,81.7 141.4,83.2 143.2,84.7 145.1,86.2 146.9,87.6 148.8,89.0 150.6,90.4 152.5,91.8 154.3,93.1 156.2,94.4 158.0,95.7 159.9,96.9 161.7,98.1 163.6,99.3 165.4,100.5 167.3,101.6 169.1,102.7 170.9,103.8 172.8,104.9 174.6,105.9 176.5,106.9 178.3,107.9 180.2,108.9 182.0,109.8 183.9,110.7 185.7,111.6 187.6,112.5 189.4,113.4 191.3,114.2 193.1,115.0 195.0,115.8 196.8,116.6 198.6,117.3 200.5,118.0 202.3,118.8 204.2,119.5 206.0,120.1 207.9,120.8 209.7,121.4 211.6,122.1 213.4,122.7 215.3,123.3 217.1,123.9 219.0,124.4 220.8,125.0 222.7,125.5 224.5,126.0 226.3,126.5 228.2,127.0 230.0,127.5 231.9,128.0 233.7,128.4 235.6,128.9 237.4,129.3 239.3,129.7 241.1,130.1 243.0,130.5 244.8,130.9 246.7,131.3 248.5,131.6 250.4,132.0 252.2,132.3 254.0,132.7 255.9,133.0 257.7,133.3 259.6,133.6 261.4,133.9 263.3,134.2 265.1,134.5 267.0,134.8 268.8,135.0 270.7,135.3 272.5,135.5 274.4,135.8 276.2,136.0 278.1,136.3 279.9,136.5 281.7,136.7 283.6,136.9 285.4,137.1 287.3,137.3 289.1,137.5 291.0,137.7 292.8,137.9 294.7,138.1 296.5,138.2 298.4,138.4 300.2,138.6 302.1,138.7 303.9,138.9 305.8,139.0 307.6,139.2 309.4,139.3 311.3,139.4 313.1,139.6 315.0,139.7 316.8,139.8 318.7,140.0 320.5,140.1 322.4,140.2 324.2,140.3 326.1,140.4 327.9,140.5 329.8,140.6 331.6,140.7 333.5,140.8 335.3,140.9 337.1,141.0 339.0,141.1 340.8,141.2 342.7,141.3 344.5,141.3 346.4,141.4 348.2,141.5 350.1,141.6 351.9,141.6 353.8,141.7 355.6,141.8 357.5,141.8 359.3,141.9 361.2,142.0 363.0,142.0 364.8,142.1 366.7,142.1 368.5,142.2 370.4,142.2 372.2,142.3 374.1,142.3 375.9,142.4 377.8,142.4 379.6,142.5 381.5,142.5 383.3,142.6 385.2,142.6 387.0,142.7 388.9,142.7 390.7,142.7 392.5,142.8 394.4,142.8 396.2,142.8 398.1,142.9 399.9,142.9 401.8,142.9 403.6,143.0 405.5,143.0 407.3,143.0 409.2,143.1 411.0,143.1 412.9,143.1 414.7,143.1 416.6,143.2 418.4,143.2 420.2,143.2 422.1,143.2 423.9,143.3 425.8,143.3 427.6,143.3 429.5,143.3 431.3,143.3 433.2,143.4 435.0,143.4 436.9,143.4 438.7,143.4 440.6,143.4 442.4,143.5 444.3,143.5 446.1,143.5 447.9,143.5 449.8,143.5 451.6,143.5 453.5,143.5 455.3,143.6 457.2,143.6 459.0,143.6 460.9,143.6 462.7,143.6 464.6,143.6 466.4,143.6 468.3,143.6 470.1,143.7 472.0,143.7 473.8,143.7 475.6,143.7 477.5,143.7 479.3,143.7 481.2,143.7 483.0,143.7 484.9,143.7 486.7,143.7 488.6,143.7 490.4,143.8 492.3,143.8 494.1,143.8 496.0,143.8 497.8,143.8 499.7,143.8 501.5,143.8 503.3,143.8 505.2,143.8 507.0,143.8 508.9,143.8 510.7,143.8 512.6,143.8 514.4,143.8 516.3,143.8 518.1,143.8 520.0,143.8 521.8,143.8 523.7,143.9 525.5,143.9 527.4,143.9 529.2,143.9 531.0,143.9 532.9,143.9 534.7,143.9 536.6,143.9 538.4,143.9 540.3,143.9 542.1,143.9 544.0,143.9 545.8,143.9 547.7,143.9 549.5,143.9 551.4,143.9 553.2,143.9 555.1,143.9 556.9,143.9 558.7,143.9 560.6,143.9 562.4,143.9 564.3,143.9 566.1,143.9 568.0,143.9 569.8,143.9 571.7,143.9 573.5,143.9 575.4,143.9 577.2,143.9 579.1,143.9 580.9,143.9 582.8,143.9 584.6,143.9 586.4,143.9 588.3,143.9 590.1,144.0 592.0,144.0 593.8,144.0 595.7,144.0 597.5,144.0 599.4,144.0 601.2,144.0 603.1,144.0 604.9,144.0 606.8,144.0 608.6,144.0 610.5,144.0 612.3,144.0 614.1,144.0 616.0,144.0 617.8,144.0 619.7,144.0 621.5,144.0 623.4,144.0 625.2,144.0 627.1,144.0 628.9,144.0 630.8,144.0 632.6,144.0 634.5,144.0 636.3,144.0 638.2,144.0 640.0,144.0" fill="none" stroke="#0f766e" stroke-width="2.4" stroke-linejoin="round" stroke-linecap="round"/><polyline points="86.0,264.0 87.8,264.0 89.7,263.8 91.5,263.6 93.4,263.3 95.2,262.9 97.1,262.4 98.9,261.8 100.8,261.2 102.6,260.5 104.5,259.7 106.3,258.9 108.2,258.0 110.0,257.0 111.9,256.0 113.7,254.9 115.5,253.8 117.4,252.7 119.2,251.5 121.1,250.2 122.9,248.9 124.8,247.6 126.6,246.3 128.5,244.9 130.3,243.5 132.2,242.1 134.0,240.7 135.9,239.2 137.7,237.8 139.6,236.3 141.4,234.8 143.2,233.3 145.1,231.8 146.9,230.3 148.8,228.7 150.6,227.2 152.5,225.7 154.3,224.2 156.2,222.7 158.0,221.2 159.9,219.7 161.7,218.2 163.6,216.7 165.4,215.2 167.3,213.8 169.1,212.3 170.9,210.9 172.8,209.5 174.6,208.1 176.5,206.7 178.3,205.3 180.2,204.0 182.0,202.6 183.9,201.3 185.7,200.0 187.6,198.7 189.4,197.5 191.3,196.2 193.1,195.0 195.0,193.8 196.8,192.6 198.6,191.4 200.5,190.3 202.3,189.2 204.2,188.1 206.0,187.0 207.9,185.9 209.7,184.9 211.6,183.9 213.4,182.9 215.3,181.9 217.1,180.9 219.0,180.0 220.8,179.1 222.7,178.2 224.5,177.3 226.3,176.4 228.2,175.6 230.0,174.7 231.9,173.9 233.7,173.1 235.6,172.4 237.4,171.6 239.3,170.9 241.1,170.2 243.0,169.5 244.8,168.8 246.7,168.1 248.5,167.5 250.4,166.8 252.2,166.2 254.0,165.6 255.9,165.0 257.7,164.4 259.6,163.9 261.4,163.3 263.3,162.8 265.1,162.3 267.0,161.8 268.8,161.3 270.7,160.8 272.5,160.3 274.4,159.9 276.2,159.4 278.1,159.0 279.9,158.6 281.7,158.2 283.6,157.8 285.4,157.4 287.3,157.0 289.1,156.6 291.0,156.3 292.8,155.9 294.7,155.6 296.5,155.3 298.4,154.9 300.2,154.6 302.1,154.3 303.9,154.0 305.8,153.7 307.6,153.5 309.4,153.2 311.3,152.9 313.1,152.7 315.0,152.4 316.8,152.2 318.7,152.0 320.5,151.7 322.4,151.5 324.2,151.3 326.1,151.1 327.9,150.9 329.8,150.7 331.6,150.5 333.5,150.3 335.3,150.1 337.1,149.9 339.0,149.8 340.8,149.6 342.7,149.4 344.5,149.3 346.4,149.1 348.2,149.0 350.1,148.8 351.9,148.7 353.8,148.5 355.6,148.4 357.5,148.3 359.3,148.2 361.2,148.0 363.0,147.9 364.8,147.8 366.7,147.7 368.5,147.6 370.4,147.5 372.2,147.4 374.1,147.3 375.9,147.2 377.8,147.1 379.6,147.0 381.5,146.9 383.3,146.8 385.2,146.7 387.0,146.7 388.9,146.6 390.7,146.5 392.5,146.4 394.4,146.4 396.2,146.3 398.1,146.2 399.9,146.2 401.8,146.1 403.6,146.0 405.5,146.0 407.3,145.9 409.2,145.9 411.0,145.8 412.9,145.8 414.7,145.7 416.6,145.7 418.4,145.6 420.2,145.6 422.1,145.5 423.9,145.5 425.8,145.4 427.6,145.4 429.5,145.3 431.3,145.3 433.2,145.3 435.0,145.2 436.9,145.2 438.7,145.2 440.6,145.1 442.4,145.1 444.3,145.1 446.1,145.0 447.9,145.0 449.8,145.0 451.6,144.9 453.5,144.9 455.3,144.9 457.2,144.9 459.0,144.8 460.9,144.8 462.7,144.8 464.6,144.8 466.4,144.7 468.3,144.7 470.1,144.7 472.0,144.7 473.8,144.7 475.6,144.6 477.5,144.6 479.3,144.6 481.2,144.6 483.0,144.6 484.9,144.5 486.7,144.5 488.6,144.5 490.4,144.5 492.3,144.5 494.1,144.5 496.0,144.5 497.8,144.4 499.7,144.4 501.5,144.4 503.3,144.4 505.2,144.4 507.0,144.4 508.9,144.4 510.7,144.4 512.6,144.3 514.4,144.3 516.3,144.3 518.1,144.3 520.0,144.3 521.8,144.3 523.7,144.3 525.5,144.3 527.4,144.3 529.2,144.3 531.0,144.3 532.9,144.3 534.7,144.2 536.6,144.2 538.4,144.2 540.3,144.2 542.1,144.2 544.0,144.2 545.8,144.2 547.7,144.2 549.5,144.2 551.4,144.2 553.2,144.2 555.1,144.2 556.9,144.2 558.7,144.2 560.6,144.2 562.4,144.2 564.3,144.2 566.1,144.1 568.0,144.1 569.8,144.1 571.7,144.1 573.5,144.1 575.4,144.1 577.2,144.1 579.1,144.1 580.9,144.1 582.8,144.1 584.6,144.1 586.4,144.1 588.3,144.1 590.1,144.1 592.0,144.1 593.8,144.1 595.7,144.1 597.5,144.1 599.4,144.1 601.2,144.1 603.1,144.1 604.9,144.1 606.8,144.1 608.6,144.1 610.5,144.1 612.3,144.1 614.1,144.1 616.0,144.1 617.8,144.1 619.7,144.1 621.5,144.1 623.4,144.1 625.2,144.1 627.1,144.1 628.9,144.1 630.8,144.1 632.6,144.0 634.5,144.0 636.3,144.0 638.2,144.0 640.0,144.0" fill="none" stroke="#b45309" stroke-width="2.4" stroke-linejoin="round" stroke-linecap="round"/><text x="150.6" y="57.6" font-size="14" text-anchor="start" fill="#0f766e" font-weight="700"><tspan>reaktionen mod højre</tspan></text><text x="196.8" y="249.6" font-size="14" text-anchor="start" fill="#b45309" font-weight="700"><tspan>reaktionen mod venstre</tspan></text><text x="524.6" y="96.0" font-size="14.5" text-anchor="middle" fill="#0f766e" font-weight="700"><tspan>ligevægt</tspan></text><text x="524.6" y="114.0" font-size="12.5" text-anchor="middle" fill="#556766"><tspan>de to hastigheder er ens</tspan></text>
</svg>
